<?xml version="1.0" standalone="no"?>
<!DOCTYPE svg PUBLIC "-//W3C//DTD SVG 20010904//EN"
 "http://www.w3.org/TR/2001/REC-SVG-20010904/DTD/svg10.dtd">
<svg version="1.0" xmlns="http://www.w3.org/2000/svg"
 width="700.000000pt" height="700.000000pt" viewBox="0 0 700.000000 700.000000"
 preserveAspectRatio="xMidYMid meet">
<metadata>
Created by potrace 1.11, written by Peter Selinger 2001-2013
</metadata>
<g transform="translate(0.000000,700.000000) scale(0.100000,-0.100000)"
fill="#000000" stroke="none">
<path d="M2759 6995 c-4 -13 -6 -22 -14 -40 -19 -48 -260 -706 -364 -995 l-31
-85 -618 -2 c-664 -3 -1491 -12 -1532 -18 -14 -2 -28 -4 -32 -4 -4 -1 -7 -9
-7 -18 0 -10 -3 -189 -8 -398 -16 -801 -8 -4816 11 -4900 2 -11 5 -25 5 -30 1
-7 39 -12 98 -14 54 -1 100 -4 102 -7 3 -3 -108 -319 -166 -471 -4 -10 122
-12 559 -13 l563 0 94 239 94 238 916 -3 c504 -2 1404 -3 2001 -4 l1085 0 29
-78 c15 -42 32 -86 37 -97 4 -11 29 -76 55 -145 26 -69 51 -131 57 -138 8 -10
127 -12 558 -11 302 0 549 2 549 3 0 2 -38 106 -85 231 -47 125 -84 230 -81
232 2 3 42 5 89 5 83 0 85 1 92 27 10 37 15 826 6 888 -4 29 -11 56 -14 60 -4
3 -129 7 -279 7 l-271 1 -93 245 c-51 135 -95 252 -98 260 -6 18 -4 11 -195
520 -84 223 -166 439 -181 480 l-28 75 471 3 c260 2 474 5 477 7 12 7 15 106
15 485 0 420 -3 480 -21 487 -6 2 -305 5 -663 6 l-651 2 -35 90 c-19 50 -93
244 -164 433 l-129 342 657 0 c1051 1 1211 3 1220 18 12 20 15 98 16 452 0
325 -6 487 -19 509 -4 7 -218 10 -654 11 -356 0 -860 2 -1120 3 l-474 2 -85
225 c-46 124 -105 279 -130 345 -80 212 -120 317 -164 433 l-42 112 -704 0
c-386 0 -704 -2 -704 -5z m795 -1005 c20 -52 36 -98 36 -102 0 -5 -40 -8 -90
-8 -49 0 -90 2 -90 4 0 7 79 217 86 228 5 8 10 5 15 -8 4 -10 23 -62 43 -114z
m-1580 -1138 c-9 -21 -19 -48 -24 -62 -4 -14 -67 -186 -139 -382 -72 -197
-131 -362 -131 -368 0 -12 -606 -14 -614 -1 -13 21 -19 159 -17 436 0 165 3
311 5 325 2 14 4 37 5 52 1 16 7 28 18 30 9 2 218 4 465 5 l447 1 -15 -36z
m2023 -57 c18 -49 40 -108 47 -130 8 -22 62 -170 120 -328 58 -159 106 -294
106 -300 0 -9 -191 -12 -767 -10 -631 1 -768 4 -765 15 1 7 71 201 154 431
l151 417 460 -2 460 -3 34 -90z m647 -1785 c27 -52 89 -250 82 -257 -10 -11
-2432 -10 -2442 0 -8 8 55 205 81 257 l13 25 1127 0 1127 0 12 -25z m-3347 0
c-9 -36 -240 -665 -246 -672 -7 -8 -5 221 3 501 4 127 9 176 18 182 7 5 62 9
122 9 104 0 108 -1 103 -20z m3744 -1310 c15 -36 43 -104 62 -152 33 -86 34
-88 13 -89 -12 0 -284 -1 -606 -1 -1989 1 -2600 3 -2600 10 0 7 73 184 102
247 7 17 18 31 25 32 6 1 310 5 675 9 365 3 664 7 665 8 1 0 369 1 819 1 l818
0 27 -65z"/>
</g>
</svg>
